<?xml version="1.0" encoding="UTF-8"?>
<svg version="1.1" xmlns="http://www.w3.org/2000/svg" width="1600" height="1600">
<path d="M0 0 C4.30159824 3.19156304 8.54230229 6.46042914 12.77832031 9.73828125 C16.77325322 12.80590086 20.83213055 15.78436457 24.89453125 18.76171875 C26.47012525 19.92047344 28.04564614 21.07932754 29.62109375 22.23828125 C31.19132386 23.39203922 32.76163629 24.54568517 34.33203125 25.69921875 C44.87709815 33.44509743 55.39022168 41.22938129 65.84912109 49.09130859 C74.63238971 55.68772955 83.47980682 62.19580398 92.33203125 68.69921875 C102.01248818 75.81398332 111.6797984 82.9432671 121.28076172 90.16503906 C130.37006234 96.99384662 139.54222108 103.71098645 148.70410156 110.44189453 C158.45742617 117.60822159 168.17455848 124.81896521 177.84912109 132.09130859 C186.63238024 138.68772243 195.47932918 145.19646663 204.33203125 151.69921875 C214.87709815 159.44509743 225.39022168 167.22938129 235.84912109 175.09130859 C244.63238024 181.68772243 253.47932918 188.19646663 262.33203125 194.69921875 C272.87709815 202.44509743 283.39022168 210.22938129 293.84912109 218.09130859 C302.63238024 224.68772243 311.47932918 231.19646663 320.33203125 237.69921875 C330.87709815 245.44509743 341.39022168 253.22938129 351.84912109 261.09130859 C360.63238971 267.68772955 369.47980682 274.19580398 378.33203125 280.69921875 C388.01248818 287.81398332 397.6797984 294.9432671 407.28076172 302.16503906 C416.37006234 308.99384662 425.54222108 315.71098645 434.70410156 322.44189453 C485.97462719 360.11329069 485.97462719 360.11329069 503.75 376.36328125 C505.11969373 377.60242929 506.49461916 378.83669802 507.9050293 380.02929688 C514.54687155 385.67890457 520.67014629 391.85125047 526.83129883 398.01318359 C528.75647827 399.93618057 530.68952156 401.85102449 532.62304688 403.765625 C538.8885717 410.00282822 544.84950844 416.26802702 550.3371582 423.20800781 C552.29418477 425.65195581 554.33799145 427.97456057 556.44140625 430.29296875 C560.42959904 434.73481354 564.03171202 439.40353191 567.58203125 444.19921875 C568.55462891 445.50886597 568.55462891 445.50886597 569.546875 446.8449707 C571.48138412 449.45860084 573.40727919 452.07839894 575.33203125 454.69921875 C575.86376953 455.4164209 576.39550781 456.13362305 576.94335938 456.87255859 C592.38597554 477.75633124 604.74826658 500.50470559 616.33203125 523.69921875 C616.73502441 524.49730957 617.13801758 525.29540039 617.55322266 526.11767578 C651.87326302 594.40074117 661.50822159 670.94662724 658.51953125 746.38671875 C658.47535065 747.50517181 658.43117004 748.62362488 658.38565063 749.77597046 C654.26353463 851.86131454 623.01529255 948.23023799 535.85253906 1043.36401367 C534.32716412 1044.89159291 532.81002453 1046.42705457 531.29296875 1047.96289062 C524.96398922 1054.32749425 518.35980685 1060.10146386 511.33203125 1065.69921875 C510.24208721 1066.62246017 509.15745918 1067.55207714 508.08203125 1068.4921875 C488.55108369 1085.49853815 466.73152354 1099.7726649 444.33203125 1112.69921875 C443.67122559 1113.08110352 443.01041992 1113.46298828 442.32958984 1113.85644531 C375.92101099 1151.99577001 301.77321903 1173.84775982 225.95703125 1182.94921875 C224.09256348 1183.17581177 224.09256348 1183.17581177 222.19042969 1183.40698242 C198.04533665 1186.14344688 173.89197792 1187.08100608 149.61237335 1187.01727676 C147.41579617 1187.01161242 145.21922678 1187.00880687 143.02264404 1187.00619507 C120.01787783 1186.96649476 97.20291935 1186.34383052 74.33203125 1183.69921875 C73.57968201 1183.61436218 72.82733276 1183.52950562 72.05218506 1183.44207764 C-10.91804796 1174.05756666 -90.7473083 1148.90615659 -188.66796875 1085.69921875 C-189.7962248 1084.86760672 -190.92508798 1084.03681749 -192.0546875 1083.20703125 C-215.88460518 1065.57106144 -239.63912052 1045.31694096 -258.93359375 1022.71484375 C-260.92709456 1020.39807254 -262.98351263 1018.14501891 -265.04296875 1015.88671875 C-324.92195669 949.35450993 -374.11312739 855.31143749 -373.765625 762.2109375 C-373.76375399 760.77220204 -373.76233333 759.33346594 -373.76133728 757.89472961 C-373.75756577 754.15481731 -373.74778308 750.41494544 -373.7366333 746.67504883 C-373.72630206 742.84001207 -373.72181488 739.00496861 -373.71679688 735.16992188 C-373.70615453 727.67966931 -373.68914482 720.18944975 -373.66796875 712.69921875 C-374.54042236 713.51108643 -375.41287598 714.3229541 -376.31176758 715.15942383 C-377.47860201 716.24178156 -378.64551712 717.32405232 -379.8125 718.40625 C-380.38488403 718.93931763 -380.95726807 719.47238525 -381.54699707 720.02160645 C-385.90867547 724.06168644 -390.41916162 727.83150825 -395.0546875 731.5546875 C-397.66644498 733.69796831 -400.17162177 735.92302205 -402.66796875 738.19921875 C-406.96788666 742.11813127 -411.42716422 745.79092744 -415.94921875 749.44921875 C-418.58944604 751.63423444 -421.13526595 753.89093266 -423.66796875 756.19921875 C-427.96788666 760.11813127 -432.42716422 763.79092744 -436.94921875 767.44921875 C-439.58944604 769.63423444 -442.13526595 771.89093266 -444.66796875 774.19921875 C-448.96788666 778.11813127 -453.42716422 781.79092744 -457.94921875 785.44921875 C-460.58944604 787.63423444 -463.13526595 789.89093266 -465.66796875 792.19921875 C-469.96788666 796.11813127 -474.42716422 799.79092744 -478.94921875 803.44921875 C-481.58944604 805.63423444 -484.13526595 807.89093266 -486.66796875 810.19921875 C-490.96788666 814.11813127 -495.42716422 817.79092744 -499.94921875 821.44921875 C-502.58944604 823.63423444 -505.13526595 825.89093266 -507.66796875 828.19921875 C-511.96788666 832.11813127 -516.42716422 835.79092744 -520.94921875 839.44921875 C-523.58944604 841.63423444 -526.13526595 843.89093266 -528.66796875 846.19921875 C-532.96788666 850.11813127 -537.42716422 853.79092744 -541.94921875 857.44921875 C-544.58944604 859.63423444 -547.13526595 861.89093266 -549.66796875 864.19921875 C-553.96788666 868.11813127 -558.42716422 871.79092744 -562.94921875 875.44921875 C-565.58944604 877.63423444 -568.13526595 879.89093266 -570.66796875 882.19921875 C-574.96788666 886.11813127 -579.42716422 889.79092744 -583.94921875 893.44921875 C-586.58944604 895.63423444 -589.13526595 897.89093266 -591.66796875 900.19921875 C-595.96788666 904.11813127 -600.42716422 907.79092744 -604.94921875 911.44921875 C-607.58944604 913.63423444 -610.13526595 915.89093266 -612.66796875 918.19921875 C-616.96788666 922.11813127 -621.42716422 925.79092744 -625.94921875 929.44921875 C-628.58944604 931.63423444 -631.13526595 933.89093266 -633.66796875 936.19921875 C-637.96788666 940.11813127 -642.42716422 943.79092744 -646.94921875 947.44921875 C-649.58944604 949.63423444 -652.13526595 951.89093266 -654.66796875 954.19921875 C-659.84524463 958.90211548 -665.18330426 963.35944896 -670.66796875 967.69921875 C-671.53035156 968.39144531 -672.39273438 969.08367188 -673.28125 969.796875 C-692.21483107 984.35469511 -714.50249903 989.20256794 -738.04589844 986.41796875 C-759.07522745 983.18974205 -779.04515605 970.74729744 -791.99511719 953.98095703 C-806.0367466 934.49806006 -811.102837 912.00354877 -807.41796875 888.41015625 C-802.5678342 864.41209467 -789.13590555 846.98407709 -770.45703125 831.984375 C-767.7843959 829.79461074 -765.21961997 827.52810677 -762.66796875 825.19921875 C-759.34807389 822.17639454 -755.97032763 819.27409714 -752.48046875 816.44921875 C-746.04247969 811.23535437 -739.81633309 805.78880622 -733.56884766 800.35009766 C-725.62270743 793.44901877 -717.60343001 786.63286907 -709.56201172 779.84326172 C-705.58172744 776.47996368 -701.62135833 773.09407205 -697.66796875 769.69921875 C-693.18298955 765.847879 -688.68497139 762.01295079 -684.16796875 758.19921875 C-679.67387822 754.40398148 -675.19532608 750.59130945 -670.73046875 746.76171875 C-670.15127686 746.26502686 -669.57208496 745.76833496 -668.9753418 745.2565918 C-666.00040834 742.70411457 -663.02819795 740.14851893 -660.05859375 737.58984375 C-654.72676241 733.00085965 -649.38467204 728.44044041 -643.91796875 724.01171875 C-639.5364508 720.45653971 -635.35086194 716.73152338 -631.1796875 712.93359375 C-628.66645643 710.69787342 -626.09485396 708.56544193 -623.48046875 706.44921875 C-619.02944683 702.8445179 -614.6759827 699.14551608 -610.35546875 695.38671875 C-609.7219751 694.83564453 -609.08848145 694.28457031 -608.43579102 693.71679688 C-607.1496522 692.5975939 -605.86360087 691.47829038 -604.57763672 690.35888672 C-597.43405634 684.15049252 -590.27151003 677.97097903 -582.91796875 672.01171875 C-578.5364508 668.45653971 -574.35086194 664.73152338 -570.1796875 660.93359375 C-567.66645643 658.69787342 -565.09485396 656.56544193 -562.48046875 654.44921875 C-558.02944683 650.8445179 -553.6759827 647.14551608 -549.35546875 643.38671875 C-548.7219751 642.83564453 -548.08848145 642.28457031 -547.43579102 641.71679688 C-546.1496522 640.5975939 -544.86360087 639.47829038 -543.57763672 638.35888672 C-536.43405634 632.15049252 -529.27151003 625.97097903 -521.91796875 620.01171875 C-517.5364508 616.45653971 -513.35086194 612.73152338 -509.1796875 608.93359375 C-506.66645643 606.69787342 -504.09485396 604.56544193 -501.48046875 602.44921875 C-497.02944683 598.8445179 -492.6759827 595.14551608 -488.35546875 591.38671875 C-487.7219751 590.83564453 -487.08848145 590.28457031 -486.43579102 589.71679688 C-485.1496522 588.5975939 -483.86360087 587.47829038 -482.57763672 586.35888672 C-475.43405634 580.15049252 -468.27151003 573.97097903 -460.91796875 568.01171875 C-456.5364508 564.45653971 -452.35086194 560.73152338 -448.1796875 556.93359375 C-445.66645643 554.69787342 -443.09485396 552.56544193 -440.48046875 550.44921875 C-436.02944683 546.8445179 -431.6759827 543.14551608 -427.35546875 539.38671875 C-426.7219751 538.83564453 -426.08848145 538.28457031 -425.43579102 537.71679688 C-424.1496522 536.5975939 -422.86360087 535.47829038 -421.57763672 534.35888672 C-414.43405634 528.15049252 -407.27151003 521.97097903 -399.91796875 516.01171875 C-395.5364508 512.45653971 -391.35086194 508.73152338 -387.1796875 504.93359375 C-384.66645643 502.69787342 -382.09485396 500.56544193 -379.48046875 498.44921875 C-375.02944683 494.8445179 -370.6759827 491.14551608 -366.35546875 487.38671875 C-365.40522827 486.56010742 -365.40522827 486.56010742 -364.43579102 485.71679688 C-363.1496522 484.5975939 -361.86360087 483.47829038 -360.57763672 482.35888672 C-353.43405634 476.15049252 -346.27151003 469.97097903 -338.91796875 464.01171875 C-334.5364508 460.45653971 -330.35086194 456.73152338 -326.1796875 452.93359375 C-323.66645643 450.69787342 -321.09485396 448.56544193 -318.48046875 446.44921875 C-309.93613656 439.53122251 -301.71034722 432.23737213 -293.43823242 424.99853516 C-292.7289006 424.37782135 -292.01956879 423.75710754 -291.28874207 423.11758423 C-290.75388687 422.64952362 -290.21903168 422.18146301 -289.66796875 421.69921875 C-290.88588387 421.6959086 -292.103799 421.69259846 -293.35862064 421.689188 C-322.32030227 421.61003676 -351.28194039 421.52076666 -380.24355141 421.41916714 C-383.8143042 421.40664944 -387.38505728 421.39421648 -390.95581055 421.38183594 C-391.66663282 421.37936994 -392.37745509 421.37690395 -393.10981744 421.37436323 C-404.59392208 421.33472414 -416.07803646 421.30193781 -427.56216932 421.27171893 C-439.3607303 421.24051883 -451.15925026 421.2018734 -462.95776504 421.15642869 C-469.57856884 421.13113775 -476.19935258 421.10944053 -482.82019234 421.09587479 C-489.06064895 421.08297962 -495.30100669 421.06084569 -501.54140854 421.03183556 C-503.82331582 421.02281779 -506.105239 421.01708323 -508.38716316 421.01500511 C-537.24604742 420.98403575 -562.52742768 416.81474508 -584.17919922 396.1953125 C-598.37614898 381.92851877 -607.79791566 361.89958174 -608.66796875 341.69921875 C-608.70792969 340.94898438 -608.74789062 340.19875 -608.7890625 339.42578125 C-609.44502347 315.57967084 -600.1220767 294.25103596 -584.03076172 277.09326172 C-567.24694671 259.92457958 -544.61896124 252.82286073 -521.11581353 252.46320488 C-515.26832065 252.41642623 -509.42128202 252.41574591 -503.57363892 252.42074585 C-500.90930381 252.4157389 -498.24498088 252.40994509 -495.58065069 252.40319312 C-489.80266287 252.39012349 -484.0247042 252.3843385 -478.24670219 252.38343239 C-469.65514675 252.3820515 -461.06363439 252.36923887 -452.47209344 252.35414465 C-438.01699001 252.32906968 -423.56189026 252.31317523 -409.10676956 252.30256271 C-394.80005736 252.29202897 -380.49335903 252.27738433 -366.18665695 252.25728226 C-365.29619833 252.25603339 -364.4057397 252.25478452 -363.48829748 252.25349781 C-358.96587394 252.24713382 -354.44345051 252.2406967 -349.92102711 252.23423143 C-317.91155135 252.18860203 -285.90207108 252.15214014 -253.89257812 252.12109375 C-222.80110006 252.09091672 -191.70963115 252.05657211 -160.61816406 252.01660156 C-159.65932748 252.01537056 -158.70049089 252.01413956 -157.71259865 252.01287125 C-148.08332708 252.0005041 -138.45405562 251.9880524 -128.82478423 251.97553877 C-109.20988078 251.95005031 -89.59497663 251.92512609 -69.98007202 251.90054321 C-68.62736104 251.89884685 -68.62736104 251.89884685 -67.24732257 251.89711622 C-7.05421528 251.82169588 53.13890705 251.75942735 113.33203125 251.69921875 C112.79835938 251.30653809 112.2646875 250.91385742 111.71484375 250.50927734 C109.25363078 248.69796512 106.79282901 246.88609503 104.33203125 245.07421875 C103.49285156 244.45675781 102.65367187 243.83929688 101.7890625 243.203125 C96.61706717 239.39429123 91.46352749 235.56242566 86.33203125 231.69921875 C77.37963317 224.96779624 68.35684173 218.33308746 59.33203125 211.69921875 C49.65207082 204.58376888 39.98427261 197.4551768 30.38330078 190.23339844 C21.29400016 183.40459088 12.12184142 176.68745105 2.95996094 169.95654297 C-6.79336367 162.79021591 -16.51049598 155.57947229 -26.18505859 148.30712891 C-35.7838582 141.09822689 -45.45628294 133.98988158 -55.13525391 126.88916016 C-65.06663018 119.60277486 -74.96880616 112.29357773 -84.66796875 104.69921875 C-85.5290625 104.03921875 -86.39015625 103.37921875 -87.27734375 102.69921875 C-99.93143038 92.11279333 -107.19678399 74.88225109 -108.66796875 58.69921875 C-110.04653048 40.74429286 -103.93997878 23.28343063 -92.3671875 9.578125 C-91.80644531 8.95808594 -91.24570312 8.33804688 -90.66796875 7.69921875 C-89.87326172 6.78462891 -89.87326172 6.78462891 -89.0625 5.8515625 C-65.81240451 -19.27621292 -26.47146126 -19.13891495 0 0 Z M-12.66796875 422.69921875 C-13.45204102 423.08432617 -14.23611328 423.46943359 -15.04394531 423.86621094 C-39.24525414 435.89784012 -61.62459036 451.60616059 -81.66796875 469.69921875 C-82.27592285 470.24545898 -82.88387695 470.79169922 -83.51025391 471.35449219 C-105.30170053 491.03020989 -123.80427902 513.34553854 -138.66796875 538.69921875 C-139.04920898 539.33746582 -139.43044922 539.97571289 -139.82324219 540.63330078 C-174.60359948 599.13772935 -182.92207552 670.73272917 -166.2890625 736.265625 C-155.39314542 777.12531406 -134.87731307 814.28731801 -106.66796875 845.69921875 C-106.20680664 846.21677734 -105.74564453 846.73433594 -105.27050781 847.26757812 C-95.11917589 858.6364935 -84.64586311 869.24630871 -72.66796875 878.69921875 C-71.5009515 879.65423402 -70.33567872 880.61138376 -69.171875 881.5703125 C-60.68424204 888.52916575 -51.94761846 894.84033163 -42.66796875 900.69921875 C-42.09175781 901.0657959 -41.51554688 901.43237305 -40.921875 901.81005859 C0.70306664 928.10880999 47.53543655 944.52722315 96.33203125 950.69921875 C97.02141785 950.78642181 97.71080444 950.87362488 98.42108154 950.96347046 C112.56492614 952.69858256 126.5925706 953.06214015 140.83203125 953.01171875 C141.93108795 953.0095636 143.03014465 953.00740845 144.1625061 953.00518799 C161.05784887 952.95212694 177.62940879 952.46777281 194.33203125 949.69921875 C195.57355957 949.49522461 196.81508789 949.29123047 198.09423828 949.08105469 C215.51445408 946.15910671 232.52157177 942.15134203 249.33203125 936.69921875 C250.17701172 936.43028809 251.02199219 936.16135742 251.89257812 935.88427734 C295.95455753 921.73633227 335.31429885 897.88627853 369.33203125 866.69921875 C370.42157399 865.71451059 371.51143429 864.73015372 372.6015625 863.74609375 C377.9036313 858.93686978 383.08400801 854.16598254 387.6796875 848.66015625 C389.55478751 846.43486026 391.53568999 844.32804663 393.51953125 842.19921875 C435.22782245 795.81733295 458.52695905 732.68725939 458.58203125 670.57421875 C458.58270599 669.88079376 458.58338074 669.18736877 458.58407593 668.47293091 C458.49311171 608.94917968 437.08709769 552.1609372 400.33203125 505.69921875 C399.6359375 504.8071875 398.93984375 503.91515625 398.22265625 502.99609375 C384.21239265 485.404259 368.04011695 469.57581098 350.09863281 456.03320312 C348.92752171 455.14888153 347.7601392 454.25959886 346.59667969 453.36523438 C270.77569868 395.10682496 170.58758967 375.68145814 -12.66796875 422.69921875 Z " fill="#FE6C00" transform="translate(874.66796875,213.30078125)"/>
<path d="M0 0 C1.03543945 0.19867676 2.07087891 0.39735352 3.13769531 0.60205078 C46.43530346 9.21640352 85.49845796 28.00588259 118 58 C118.76135254 58.70141113 118.76135254 58.70141113 119.53808594 59.41699219 C151.80835191 89.52001397 171.08717845 132.06607081 173 176 C174.0892269 223.46867474 153.95335111 265.30887447 121.7578125 299.1796875 C118.32320405 302.6921341 114.81165928 305.90629024 111 309 C109.94767136 309.88773012 108.89561339 310.77578115 107.84375 311.6640625 C59.74534371 351.74496795 -4.16994281 368.46735638 -66.04296875 363.50390625 C-111.17907911 359.21354909 -155.2618609 344.45333668 -191 316 C-191.80993408 315.36143066 -191.80993408 315.36143066 -192.63623047 314.70996094 C-229.06331345 285.740652 -255.22764032 245.22107366 -260.80151367 198.4621582 C-264.42548934 153.50792131 -252.01261891 109.83946392 -222.6171875 75.19140625 C-221.11837931 73.52239442 -219.60471209 71.86656758 -218.07421875 70.2265625 C-216.18675832 68.20047504 -214.40379289 66.12103095 -212.625 64 C-178.76950593 25.45090335 -124.85127001 4.19023517 -75 -2 C-74.31728027 -2.0942627 -73.63456055 -2.18852539 -72.93115234 -2.28564453 C-49.38724582 -5.14985427 -23.2382693 -4.47013372 0 0 Z " fill="#00569A" transform="translate(1061,703)"/>
</svg>
