<?xml version="1.0" encoding="UTF-8"?>
<svg version="1.1" xmlns="http://www.w3.org/2000/svg" width="500" height="500">
<path d="M0 0 C0.2083699 0.78194229 0.41673981 1.56388458 0.63142395 2.36952209 C2.05328386 7.70509472 3.47515469 13.04066429 4.89770508 18.37605286 C5.31502657 19.94129334 5.73234419 21.50653486 6.1496582 23.07177734 C6.36476358 23.87858161 6.57986897 24.68538588 6.80149269 25.51663876 C8.14521848 30.55730657 9.4875439 35.59834507 10.82888317 40.63964844 C15.48487328 58.13706723 20.15932488 75.62888922 24.91095924 93.10060692 C26.24350927 98.00439952 27.57057618 102.90967957 28.89773083 107.81493473 C30.16528016 112.49681572 31.44247697 117.17593324 32.72643471 121.8533392 C33.52148309 124.75851755 34.30751144 127.66607955 35.09106445 130.57437706 C35.45543194 131.91923406 35.82361099 133.26306511 36.19589233 134.60575294 C36.70290428 136.43607357 37.19521371 138.27044797 37.68676758 140.10498047 C37.96619705 141.12896942 38.24562653 142.15295837 38.53352356 143.20797729 C39.34834853 148.08498631 37.98034452 151.44471651 35.55859375 155.625 C35.06061279 156.49060547 34.56263184 157.35621094 34.04956055 158.24804688 C33.51758057 159.15619141 32.98560059 160.06433594 32.4375 161 C31.63082886 162.40088867 31.63082886 162.40088867 30.80786133 163.83007812 C28.41184963 167.96919638 25.98612269 172.07622924 23.390625 176.09375 C23.01365479 176.68027344 22.63668457 177.26679688 22.24829102 177.87109375 C21.25737478 179.39270322 20.24470247 180.90008256 19.23046875 182.40625 C17.6995897 185.63324584 18.01736582 186.60706826 19 190 C20.08318837 192.17003321 21.24503189 194.30153468 22.45703125 196.40234375 C22.97338387 197.30262047 22.97338387 197.30262047 23.50016785 198.22108459 C24.22739322 199.48610718 24.95795701 200.7492158 25.69165039 202.01049805 C26.80477845 203.92422485 27.90815356 205.84329741 29.00976562 207.76367188 C32.83641318 214.54711248 32.83641318 214.54711248 37.3034668 220.90844727 C40.52416886 226.77745723 37.58997728 234.15081883 35.90551758 240.34472656 C35.58751552 241.53930937 35.58751552 241.53930937 35.26308918 242.75802517 C34.56191308 245.38692677 33.85324264 248.01374573 33.14453125 250.640625 C32.64511661 252.50734807 32.14617438 254.37419758 31.64767456 256.24116516 C30.31686388 261.21971634 28.97949166 266.19648049 27.64028549 271.17277908 C26.26192764 276.29670508 24.88765951 281.42172791 23.51293945 286.54663086 C21.87308109 292.65908824 20.23260593 298.77137698 18.58934021 304.88291931 C15.66624104 315.75825592 12.76619525 326.63904265 9.91153145 337.53254318 C8.79721551 341.77993317 7.67447779 346.02510799 6.55307007 350.27062988 C5.97781795 352.45838489 5.40684557 354.64726986 4.84024048 356.83728027 C4.07528981 359.79175018 3.29549642 362.74188584 2.51171875 365.69140625 C2.18988113 366.96121086 2.18988113 366.96121086 1.86154175 368.25666809 C1.3370888 370.1996252 0.68153847 372.10642176 0 374 C-3.25858736 375.08619579 -4.05622338 374.94244438 -7.24984741 374.08659363 C-8.11764328 373.85840942 -8.98543915 373.63022522 -9.87953186 373.39512634 C-10.82984787 373.1360701 -11.78016388 372.87701385 -12.75927734 372.61010742 C-14.265494 372.21014053 -14.265494 372.21014053 -15.80213928 371.80209351 C-19.14892688 370.91120366 -22.49237112 370.00836628 -25.8359375 369.10546875 C-28.18662709 368.47709237 -30.5375115 367.84944438 -32.88858032 367.2224884 C-39.12025713 365.55851827 -45.34916302 363.88439239 -51.57757568 362.20825195 C-57.76620443 360.54474154 -63.95742538 358.89094183 -70.1484375 357.23632812 C-80.83590048 354.37899291 -91.51928604 351.50675801 -102.20119858 348.62875175 C-108.43264806 346.9520976 -114.66801478 345.29178683 -120.90974236 343.65380764 C-124.42224945 342.73168161 -127.93290751 341.80264012 -131.44337845 340.87279701 C-133.02952666 340.45487379 -134.6166267 340.04054393 -136.20472336 339.6300869 C-138.34032546 339.07796234 -140.47236872 338.51374591 -142.60400391 337.9465332 C-144.3649791 337.48667778 -144.3649791 337.48667778 -146.16152954 337.01753235 C-151.13059941 335.23622463 -152.66849573 332.08985385 -155.14453125 327.58984375 C-155.73943359 326.51669922 -156.33433594 325.44355469 -156.94726562 324.33789062 C-157.56279297 323.21576172 -158.17832031 322.09363281 -158.8125 320.9375 C-160.02583143 318.73744653 -161.24065892 316.53821742 -162.45703125 314.33984375 C-163.04564941 313.27491699 -163.63426758 312.20999023 -164.24072266 311.11279297 C-166.3812099 307.32550288 -168.63671049 303.61798941 -170.94018555 299.92797852 C-172 298 -172 298 -172 296 C-173.64344894 296.42418213 -173.64344894 296.42418213 -175.32009888 296.85693359 C-190.05311729 300.27974516 -208.00486585 302.2954028 -221.46842957 293.99609375 C-239.67712787 281.72501135 -254.64838919 263.95147644 -269.41449285 247.89873123 C-275.51523529 241.27635984 -281.75381651 234.79048628 -288.00470901 228.31017685 C-300.82343263 215.01498566 -313.4679502 201.56547906 -326 188 C-324.50951586 184.59767084 -322.56150189 182.21381455 -320.04486084 179.49481201 C-319.21668854 178.59741302 -318.38851624 177.70001404 -317.5352478 176.77542114 C-316.61460583 175.78848954 -315.69366676 174.80183501 -314.77246094 173.81542969 C-313.8024024 172.77059008 -312.83242356 171.72567648 -311.86251831 170.68069458 C-302.93580979 161.08716996 -293.86612684 151.62960556 -284.75704575 142.20942307 C-278.65172793 135.8904011 -272.59673761 129.53570889 -266.6484375 123.06835938 C-223.33056166 76.04520971 -223.33056166 76.04520971 -200.95793533 74.47369766 C-191.11759262 74.27299139 -181.52642094 75.61094803 -172 78 C-171.70177338 77.23553558 -171.40354675 76.47107117 -171.09628296 75.68344116 C-169.83343326 72.59228404 -168.2928288 69.76668652 -166.6640625 66.8515625 C-166.34343842 66.27594574 -166.02281433 65.70032898 -165.69247437 65.10726929 C-164.67277305 63.27827237 -163.64892136 61.45163707 -162.625 59.625 C-161.94504629 58.4063985 -161.26535641 57.18764975 -160.5859375 55.96875 C-158.72984553 52.64249954 -156.86963511 49.31866573 -155 46 C-154.49808136 44.84291031 -153.99616272 43.68582062 -153.47903442 42.4936676 C-151.68044848 39.37328327 -150.14493921 38.32794439 -146.73907471 37.19795227 C-145.01191997 36.73989168 -143.27676049 36.31132498 -141.53613281 35.9074707 C-140.60369373 35.66689847 -139.67125465 35.42632624 -138.71055984 35.17846394 C-136.76557351 34.67791713 -134.8176957 34.18848265 -132.86720276 33.70984268 C-129.35433324 32.84015019 -125.86574641 31.89283784 -122.37495041 30.93910503 C-118.0632053 29.76394389 -113.74162856 28.62576414 -109.421875 27.48046875 C-107.51307012 26.97271601 -105.60431901 26.46476108 -103.69561768 25.95661926 C-98.71783577 24.63183736 -93.739502 23.30914302 -88.76098633 21.98712158 C-80.86391609 19.88991253 -72.96751665 17.79018495 -65.07148743 15.68906021 C-62.19030096 14.92286875 -59.30872827 14.15814269 -56.42712402 13.39352417 C-47.6160287 11.05240165 -38.81405838 8.68523405 -30.03320312 6.23291016 C-28.49522003 5.80527857 -26.95723585 5.3776509 -25.41925049 4.95002747 C-22.61639286 4.17010994 -19.8171982 3.37858475 -17.01971436 2.57963562 C-15.79021057 2.23664932 -14.56070679 1.89366302 -13.29394531 1.5402832 C-11.71193329 1.09106255 -11.71193329 1.09106255 -10.09796143 0.63276672 C-6.66356994 -0.06871672 -3.4960802 -0.10833597 0 0 Z M-65.5703125 57.1237793 C-66.45852692 57.34983353 -67.34674133 57.57588776 -68.26187134 57.80879211 C-71.21686267 58.56154491 -74.17094507 59.31780021 -77.125 60.07421875 C-79.18648395 60.60048123 -81.24800799 61.12658671 -83.30957031 61.65254211 C-87.64785323 62.75991533 -91.98570016 63.86897645 -96.32324219 64.97924805 C-101.83375981 66.38965777 -107.34522567 67.79631793 -112.85702515 69.20170879 C-117.12671076 70.29078269 -121.39591344 71.38174013 -125.66497803 72.47324562 C-127.69303998 72.99157981 -129.72123447 73.50939577 -131.74957275 74.02664757 C-137.30885845 75.44499847 -142.86290283 76.88155314 -148.41318321 78.33472252 C-150.9730334 78.99306473 -153.53929475 79.61806554 -156.1085968 80.23835754 C-164.26792833 82.26291199 -171.08913632 84.07447979 -176.85546875 90.55078125 C-177.45708328 91.16841843 -178.05869781 91.7860556 -178.67854309 92.42240906 C-180.54831432 94.35689029 -182.36702723 96.33169112 -184.1875 98.3125 C-185.44026241 99.62211018 -186.69611596 100.92877055 -187.95507812 102.23242188 C-192.52795491 106.99918008 -197.00152097 111.83053984 -201.30737305 116.84033203 C-205.47355945 121.62147381 -209.96386518 126.05227854 -214.4765625 130.50390625 C-216.2996133 132.31431807 -218.12252583 134.12486912 -219.9453125 135.93554688 C-222.79169399 138.75708525 -225.63946419 141.57718409 -228.49023438 144.39428711 C-231.26094651 147.13472735 -234.02534856 149.88141103 -236.7890625 152.62890625 C-237.63812164 153.46450577 -238.48718079 154.30010529 -239.36196899 155.161026 C-240.15984833 155.95552658 -240.95772766 156.75002716 -241.77978516 157.56860352 C-242.47592926 158.25729019 -243.17207336 158.94597687 -243.88931274 159.65553284 C-246.54478705 162.60512771 -248.73765328 165.73933031 -251 169 C-234.05830406 169.30402567 -217.11746207 169.5330866 -200.17366028 169.67355824 C-192.30576258 169.74052394 -184.43956197 169.83176772 -176.57275391 169.98071289 C-169.71383267 170.11051318 -162.85614037 170.19420636 -155.99602509 170.22315043 C-152.36463725 170.2400666 -148.73676401 170.27963577 -145.10650635 170.37449074 C-131.04058785 171.48520956 -131.04058785 171.48520956 -118.04174995 167.76640511 C-114.68431788 164.37287752 -113.42431233 160.51908591 -112 156 C-110.79405611 153.8141978 -109.54742025 151.64992588 -108.24609375 149.51953125 C-106.97454154 147.28500298 -105.70507618 145.04928614 -104.4375 142.8125 C-103.03234523 140.34182403 -101.62548727 137.87211894 -100.21875 135.40234375 C-99.86582382 134.78224426 -99.51289764 134.16214478 -99.14927673 133.52325439 C-95.60215949 127.29361924 -92.02321875 121.08248884 -88.4375 114.875 C-87.82608154 113.81635742 -87.21466309 112.75771484 -86.5847168 111.66699219 C-85.34878328 109.52741959 -84.11269934 107.38793387 -82.87646484 105.24853516 C-80.95401712 101.92039446 -79.03335754 98.59122808 -77.11328125 95.26171875 C-76.15156006 93.59423584 -76.15156006 93.59423584 -75.17041016 91.89306641 C-73.9053044 89.6989941 -72.6406448 87.50466446 -71.37646484 85.31005859 C-68.47100751 80.26903208 -65.5563363 75.2340275 -62.61328125 70.21484375 C-62.09540039 69.32917725 -61.57751953 68.44351074 -61.04394531 67.53100586 C-60.08211292 65.88774342 -59.11681477 64.24650284 -58.14746094 62.60766602 C-55.83027324 59.04280153 -55.83027324 59.04280153 -55 55 C-58.60539769 55 -62.09229088 56.23082257 -65.5703125 57.1237793 Z M-23 74 C-27.84687824 80.40809377 -31.63760055 87.54080914 -35.5 94.5625 C-40.22405984 103.07435918 -45.01501639 111.53876112 -49.9375 119.9375 C-55.42664432 129.30450135 -60.88101634 138.69033995 -66.29321289 148.10205078 C-69.23673479 153.21924447 -72.18814269 158.33113087 -75.17622375 163.42242432 C-76.57620026 165.80878375 -77.97101969 168.19813853 -79.36550903 170.58770752 C-80.35254039 172.27412603 -81.34696395 173.95621111 -82.34155273 175.63818359 C-82.93782471 176.66121582 -83.53409668 177.68424805 -84.1484375 178.73828125 C-84.67614746 179.63587158 -85.20385742 180.53346191 -85.74755859 181.45825195 C-87.02859197 184.05802553 -87.72817165 186.11707967 -88 189 C-86.77802821 191.57530555 -85.52524915 193.80151503 -84 196.1875 C-83.0645841 197.71242543 -82.13111538 199.23854637 -81.19921875 200.765625 C-80.68536621 201.60029297 -80.17151367 202.43496094 -79.64208984 203.29492188 C-76.60963769 208.29039762 -73.72097913 213.36920301 -70.8125 218.4375 C-69.51722467 220.68636935 -68.22164771 222.93506498 -66.92578125 225.18359375 C-66.27561035 226.31265137 -65.62543945 227.44170898 -64.95556641 228.60498047 C-61.18741961 235.14678438 -57.41326041 241.68512132 -53.6394043 248.22363281 C-50.43533648 253.77572939 -47.23448128 259.3296392 -44.0390625 264.88671875 C-35.92198881 279.00877251 -35.92198881 279.00877251 -27.6875 293.0625 C-27.33252441 293.66989014 -26.97754883 294.27728027 -26.61181641 294.90307617 C-24.8443558 297.99194367 -24.8443558 297.99194367 -22 300 C-16.2098245 280.33774484 -10.55606901 260.63596032 -4.98629761 240.91020584 C-3.59859829 235.9970236 -2.20397771 231.08602337 -0.79394531 226.17919922 C0.5913254 221.35775641 1.9591791 216.53168207 3.31507874 211.70190048 C3.82886486 209.88303709 4.34871024 208.06587298 4.87498474 206.25058365 C8.89638862 193.29459352 8.89638862 193.29459352 8 180 C7.76078827 179.00477325 7.52157654 178.00954651 7.27511597 176.98416138 C6.37660536 173.46861893 5.39238708 169.98635926 4.38671875 166.5 C4.01617344 165.19267037 3.64637465 163.88512896 3.27726746 162.57739258 C2.29323079 159.09890725 1.29891662 155.62344092 0.30245209 152.14849854 C-0.7267965 148.55254508 -1.74641854 144.95386416 -2.76708984 141.35546875 C-4.59754423 134.90762325 -6.43616023 128.4621434 -8.2793541 122.01792908 C-10.14571055 115.4925555 -12.00468623 108.96508811 -13.86328125 102.4375 C-16.56489125 92.95527653 -19.2773814 83.47621173 -22 74 C-22.33 74 -22.66 74 -23 74 Z M-251 205 C-248.85140241 208.68992593 -246.67952606 211.56103395 -243.63964844 214.5715332 C-242.76153503 215.44626785 -241.88342163 216.3210025 -240.97869873 217.22224426 C-240.02228328 218.16511609 -239.06584137 219.10796108 -238.109375 220.05078125 C-237.12100875 221.03286589 -236.13316334 222.01547495 -235.14581299 222.99858093 C-232.54868147 225.58244243 -229.9460454 228.16068034 -227.34173584 230.73730469 C-223.18743546 234.84843564 -219.03974925 238.96620832 -214.89551544 243.08748436 C-213.45848476 244.51442846 -212.01783173 245.93772169 -210.5770874 247.36091614 C-205.49511065 252.40563104 -200.63934741 257.54699838 -196 263 C-192.53135221 266.99266009 -188.99184229 270.90539784 -185.36450195 274.75463867 C-184.26119748 275.94403591 -183.1764036 277.1509224 -182.11254883 278.37573242 C-172.12861643 289.82383015 -161.78654849 292.8451186 -147.24038696 296.03421021 C-142.42564315 297.10896627 -137.65512303 298.34426892 -132.8815918 299.58764648 C-131.53399261 299.93861688 -131.53399261 299.93861688 -130.1591692 300.29667759 C-128.2942907 300.78284683 -126.42948502 301.26929552 -124.56474876 301.75601006 C-119.79415702 302.99657179 -115.01813479 304.21579581 -110.2421875 305.43554688 C-108.29653935 305.9328217 -106.35090139 306.43013638 -104.40527344 306.92749023 C-102.94982117 307.29949554 -102.94982117 307.29949554 -101.46496582 307.67901611 C-97.46152736 308.70315728 -93.45886192 309.73030289 -89.45616913 310.75735378 C-85.59287808 311.74810835 -81.72902724 312.73666496 -77.86500549 313.72456551 C-76.02434674 314.19549972 -74.1838807 314.66718781 -72.34361267 315.13964653 C-69.79931427 315.79256719 -67.2542622 316.44246236 -64.70898438 317.09155273 C-63.95285858 317.28627167 -63.19673279 317.4809906 -62.41769409 317.68161011 C-58.75515679 318.65803886 -58.75515679 318.65803886 -55 319 C-56.4095658 314.13737088 -58.57057973 310.04484954 -61.1875 305.75 C-62.09498405 304.23381085 -63.00114806 302.71683112 -63.90625 301.19921875 C-64.40125 300.37083496 -64.89625 299.54245117 -65.40625 298.68896484 C-68.3790229 293.67332135 -71.27939472 288.61581773 -74.1875 283.5625 C-74.82453857 282.45680664 -75.46157715 281.35111328 -76.11791992 280.21191406 C-77.42700657 277.93975918 -78.73584262 275.66745991 -80.04443359 273.39501953 C-83.81176428 266.85463244 -87.58484309 260.31755899 -91.35839844 253.78076172 C-94.24044952 248.78737043 -97.12045411 243.79285132 -99.99118042 238.79293823 C-100.9921981 237.04975268 -101.99402783 235.30703628 -102.99609375 233.56445312 C-104.24118039 231.39870382 -105.4848021 229.23211129 -106.7265625 227.06445312 C-107.85064809 225.11056503 -109.00422214 223.17322247 -110.19224548 221.25753784 C-112 218 -112 218 -113.06031799 214.61074829 C-114.69085092 210.40216912 -116.11942609 207.45411066 -120 205 C-128.75272872 202.6301195 -138.26505272 203.44674898 -147.26386261 203.68187881 C-150.91371856 203.76346845 -154.56372833 203.77080645 -158.21435547 203.78620911 C-165.11795385 203.826525 -172.01885763 203.93306651 -178.92127228 204.06375247 C-186.78307843 204.20935286 -194.64501733 204.28060686 -202.5078373 204.34579313 C-218.67346596 204.48147025 -234.83638853 204.70993738 -251 205 Z " fill="#000000" transform="translate(388,60)"/>
</svg>
