<?xml version="1.0" encoding="UTF-8"?>
<svg version="1.1" xmlns="http://www.w3.org/2000/svg" width="512" height="512">
<path d="M0 0 C0.85337448 -0.00983917 1.70674896 -0.01967834 2.58598328 -0.02981567 C62.01718725 -0.5735509 114.73753546 17.83256024 157.91015625 59.23828125 C158.85890625 60.13417969 159.80765625 61.03007813 160.78515625 61.953125 C167.9152827 68.85030697 173.9879491 76.31110941 179.91015625 84.23828125 C180.83054687 85.44871094 180.83054687 85.44871094 181.76953125 86.68359375 C204.50778488 117.75920705 219.7808781 157.64628078 220.1484375 196.328125 C220.15827667 197.18149948 220.16811584 198.03487396 220.17825317 198.91410828 C220.7219884 258.34531225 202.31587726 311.06566046 160.91015625 354.23828125 C160.01425781 355.18703125 159.11835938 356.13578125 158.1953125 357.11328125 C151.29813053 364.2434077 143.83732809 370.3160741 135.91015625 376.23828125 C135.10320312 376.851875 134.29625 377.46546875 133.46484375 378.09765625 C102.38923045 400.83590988 62.50215672 416.1090031 23.8203125 416.4765625 C22.96693802 416.48640167 22.11356354 416.49624084 21.23432922 416.50637817 C-38.19687475 417.0501134 -90.91722296 398.64400226 -134.08984375 357.23828125 C-135.03859375 356.34238281 -135.98734375 355.44648438 -136.96484375 354.5234375 C-144.0949702 347.62625553 -150.1676366 340.16545309 -156.08984375 332.23828125 C-157.01023437 331.02785156 -157.01023437 331.02785156 -157.94921875 329.79296875 C-180.68747238 298.71735545 -195.9605656 258.83028172 -196.328125 220.1484375 C-196.33796417 219.29506302 -196.34780334 218.44168854 -196.35794067 217.56245422 C-196.9016759 158.13125025 -178.49556476 105.41090204 -137.08984375 62.23828125 C-136.19394531 61.28953125 -135.29804688 60.34078125 -134.375 59.36328125 C-127.47781803 52.2331548 -120.01701559 46.1604884 -112.08984375 40.23828125 C-111.28289062 39.6246875 -110.4759375 39.01109375 -109.64453125 38.37890625 C-78.56891795 15.64065262 -38.68184422 0.3675594 0 0 Z M-25.08984375 36.23828125 C-25.93498535 36.44759277 -26.78012695 36.6569043 -27.65087891 36.87255859 C-73.92750946 48.66071056 -114.03566654 76.57146404 -138.90234375 117.73828125 C-150.82574365 138.11415456 -158.34262864 159.94812655 -162.08984375 183.23828125 C-162.26563965 184.31964355 -162.44143555 185.40100586 -162.62255859 186.51513672 C-163.11023032 190.40071344 -163.26807366 194.21989346 -163.29296875 198.12890625 C-163.3035582 199.23573006 -163.3035582 199.23573006 -163.31436157 200.36491394 C-163.59940177 222.97764967 -163.59940177 222.97764967 -160.08984375 245.23828125 C-159.88053223 246.08342285 -159.6712207 246.92856445 -159.45556641 247.79931641 C-147.66741444 294.07594696 -119.75666096 334.18410404 -78.58984375 359.05078125 C-58.21397044 370.97418115 -36.37999845 378.49106614 -13.08984375 382.23828125 C-11.46780029 382.5019751 -11.46780029 382.5019751 -9.81298828 382.77099609 C-5.92741156 383.25866782 -2.10823154 383.41651116 1.80078125 383.44140625 C2.53866379 383.44846588 3.27654633 383.45552551 4.03678894 383.46279907 C26.64952467 383.74783927 26.64952467 383.74783927 48.91015625 380.23828125 C49.75529785 380.02896973 50.60043945 379.8196582 51.47119141 379.60400391 C97.74782196 367.81585194 137.85597904 339.90509846 162.72265625 298.73828125 C174.64605615 278.36240794 182.16294114 256.52843595 185.91015625 233.23828125 C186.1738501 231.61623779 186.1738501 231.61623779 186.44287109 229.96142578 C186.93054282 226.07584906 187.08838616 222.25666904 187.11328125 218.34765625 C187.1238707 217.24083244 187.1238707 217.24083244 187.13467407 216.11164856 C187.41971427 193.49891283 187.41971427 193.49891283 183.91015625 171.23828125 C183.70084473 170.39313965 183.4915332 169.54799805 183.27587891 168.67724609 C171.48772694 122.40061554 143.57697346 82.29245846 102.41015625 57.42578125 C82.03428294 45.50238135 60.20031095 37.98549636 36.91015625 34.23828125 C35.82879395 34.06248535 34.74743164 33.88668945 33.63330078 33.70556641 C29.74772406 33.21789468 25.92854404 33.06005134 22.01953125 33.03515625 C21.28164871 33.02809662 20.54376617 33.02103699 19.78352356 33.01376343 C-2.82921217 32.72872323 -2.82921217 32.72872323 -25.08984375 36.23828125 Z " fill="#000000" transform="translate(244.08984375,47.76171875)"/>
<path d="M0 0 C-3.25275555 3.34636002 -6.58875637 6.3595445 -10.25 9.25 C-22.48271695 18.82641034 -22.48271695 18.82641034 -30 32 C-30.90987732 40.957433 -31.27430303 51.81821845 -27 60 C-23.74506571 62.25868104 -19.77545266 62.93358575 -16 64 C-15.99761165 64.60868518 -15.99522329 65.21737036 -15.99276257 65.84450054 C-15.93361172 80.65909812 -15.85806113 95.47354397 -15.76428509 110.2879591 C-15.71933047 117.45213029 -15.67991511 124.61625181 -15.65356445 131.78051758 C-15.63058158 138.02531766 -15.59718049 144.2699605 -15.55129844 150.51463586 C-15.52736979 153.82080417 -15.51019269 157.12678349 -15.50238609 160.4330349 C-15.49278439 164.12510802 -15.46477079 167.81661136 -15.43237305 171.50854492 C-15.43380814 172.60330643 -15.43524323 173.69806793 -15.4367218 174.82600403 C-15.44572078 181.94256675 -15.44572078 181.94256675 -12 188 C-6.38370786 191.08660089 -0.20116782 190.85266058 6 190 C14.61481684 187.39571276 22.52800592 182.93151609 30 178 C30.66 178 31.32 178 32 178 C31.93860513 165.4294932 31.86136725 152.85919087 31.76428509 140.2889061 C31.71968836 134.45108184 31.68040883 128.61332565 31.65356445 122.77539062 C31.62742458 117.13423912 31.58694719 111.49335107 31.53681374 105.85236359 C31.52021704 103.70759628 31.5086582 101.56278347 31.50238609 99.41796112 C31.44435847 81.38762258 30.4816304 65.25167513 17.35546875 51.59375 C16 50 16 50 16 48 C24.87052951 47.43679178 31.00197302 49.51165974 38 55 C38.83917969 54.09121094 38.83917969 54.09121094 39.6953125 53.1640625 C50.84767042 41.50966917 63.40132234 33.67757055 78 27 C79.175625 26.45472656 80.35125 25.90945312 81.5625 25.34765625 C87.80521335 22.55971722 94.1143998 20.1928554 100.625 18.125 C101.30046875 17.90948486 101.9759375 17.69396973 102.671875 17.47192383 C105.97771205 16.46268992 108.50155763 16 112 16 C110.66073964 18.84085532 109.14502914 21.31350516 107.27734375 23.8359375 C106.47598999 24.92720947 106.47598999 24.92720947 105.65844727 26.04052734 C105.09053467 26.81090332 104.52262207 27.5812793 103.9375 28.375 C87.82129885 48.77718152 87.82129885 48.77718152 80.84609985 72.85118103 C80.83749939 73.82549576 80.82889893 74.79981049 80.82003784 75.8036499 C80.81577789 76.86609924 80.81151794 77.92854858 80.80712891 79.02319336 C80.79895142 80.14716019 80.79077393 81.27112701 80.78234863 82.42915344 C80.75753002 86.14937813 80.74099087 89.86956485 80.7265625 93.58984375 C80.71857698 95.49464602 80.71857698 95.49464602 80.71043015 97.43792915 C80.68921302 102.77295739 80.67008144 108.10797236 80.65880775 113.44303036 C80.64255839 121.08114815 80.60933764 128.71875821 80.55240691 136.35668463 C80.50903979 142.38056334 80.49306352 148.40421072 80.48667526 154.42825508 C80.47994694 156.98916814 80.46468424 159.55007334 80.44078445 162.11088371 C80.40927559 165.69012284 80.409075 169.26807154 80.41650391 172.84741211 C80.40009857 173.90783722 80.38369324 174.96826233 80.36679077 176.06082153 C80.4024092 182.05596515 80.4024092 182.05596515 83.40853882 187.14845276 C85.81920349 188.8708245 87.11162832 189.67072563 90 190 C90.66515625 190.12503906 91.3303125 190.25007812 92.015625 190.37890625 C105.06426413 191.45108464 119.35894494 180.85733386 129 173 C133.81206908 168.82080798 138.4260954 164.43675604 143 160 C143.88730283 162.88767647 144.10052448 163.73452222 142.98828125 166.671875 C135.72419274 180.01476951 126.52398022 192.05152309 116 203 C115.09894531 203.95261719 114.19789063 204.90523437 113.26953125 205.88671875 C100.95886388 218.6946826 83.35109665 234.83032394 66 240 C61.37483029 239.5449311 57.9569515 238.18545259 53.8671875 236.0234375 C52.73152344 235.435625 51.59585938 234.8478125 50.42578125 234.2421875 C48.64194034 233.30664452 46.86028078 232.36719781 45.08056641 231.42382812 C43.34810658 230.5093555 41.60773411 229.60992289 39.8671875 228.7109375 C38.83706543 228.16743652 37.80694336 227.62393555 36.74560547 227.06396484 C33.70789525 225.88680487 32.96198798 225.91184723 30 227 C28.42407755 228.20550871 28.42407755 228.20550871 27.02661133 229.77563477 C26.47536087 230.35616104 25.92411041 230.93668732 25.3561554 231.5348053 C24.77069443 232.16398361 24.18523346 232.79316193 23.58203125 233.44140625 C22.3153613 234.76063821 21.04775318 236.07896992 19.77929688 237.39648438 C17.79210639 239.47644477 15.81269923 241.56228665 13.84936523 243.66479492 C11.94733275 245.69431396 10.01764946 247.69396444 8.08203125 249.69140625 C7.50669144 250.3226088 6.93135162 250.95381134 6.33857727 251.60414124 C3.11491875 254.88671623 1.02988798 256.38618732 -3.66308594 256.43798828 C-5.1119651 256.3287485 -6.55912716 256.18726883 -8 256 C-8.82894775 255.90501221 -9.65789551 255.81002441 -10.51196289 255.7121582 C-11.1589917 255.57640381 -11.80602051 255.44064941 -12.47265625 255.30078125 C-13.21870117 255.14625488 -13.96474609 254.99172852 -14.73339844 254.83251953 C-15.50200195 254.66091309 -16.27060547 254.48930664 -17.0625 254.3125 C-17.88395508 254.13315918 -18.70541016 253.95381836 -19.55175781 253.76904297 C-47.78281995 247.41133368 -79.36108789 235.26039462 -96 210 C-96 209.34 -96 208.68 -96 208 C-95.10075806 207.97812622 -95.10075806 207.97812622 -94.18334961 207.95581055 C-91.43412545 207.88076179 -88.68604111 207.78429248 -85.9375 207.6875 C-84.99455078 207.66494141 -84.05160156 207.64238281 -83.08007812 207.61914062 C-77.35735111 207.39980266 -73.03187443 206.81330563 -68 204 C-65.93690565 200.90535847 -65.74954881 200.2611941 -65.74603271 196.76260376 C-65.74039307 195.8990477 -65.73475342 195.03549164 -65.72894287 194.14576721 C-65.73299133 193.2012822 -65.73703979 192.25679718 -65.74121094 191.28369141 C-65.7377063 190.28666702 -65.73420166 189.28964264 -65.73059082 188.2624054 C-65.72177148 184.95872075 -65.72762434 181.65524942 -65.734375 178.3515625 C-65.7330282 176.05854247 -65.73108754 173.76552271 -65.72857666 171.47250366 C-65.72562494 166.66230557 -65.72992383 161.85218167 -65.73925781 157.04199219 C-65.75063948 150.87587371 -65.74410125 144.70992957 -65.73211288 138.54381752 C-65.72488466 133.80663745 -65.72718689 129.06949867 -65.73236847 124.33231735 C-65.73370296 122.05892288 -65.73206426 119.78552465 -65.72740936 117.51213455 C-65.72232984 114.33302134 -65.73007526 111.1541899 -65.74121094 107.97509766 C-65.73716248 107.0346611 -65.73311401 106.09422455 -65.72894287 105.12528992 C-65.75775659 100.68445226 -65.78409545 96.98427013 -68 93 C-71.390739 90.36275856 -74.85158547 90.59854053 -79 91 C-106.73863315 98.47901713 -125.9780529 131.46835283 -139.6105957 154.46289062 C-140.71714052 156.32262982 -141.85518533 158.16357122 -143 160 C-143.33 160 -143.66 160 -144 160 C-145.99985033 120.2251989 -126.41976887 84.08406174 -100.71533203 55.05224609 C-76.18701257 28.02287173 -44.16922905 9.91199312 -9 1 C-8.31977783 0.81679199 -7.63955566 0.63358398 -6.9387207 0.44482422 C-4.58903788 -0.09429203 -2.40235595 -0.06673211 0 0 Z " fill="#000000" transform="translate(256,128)"/>
</svg>
